<svg width="111" height="30" viewBox="0 0 111 30" fill="none" xmlns="http://www.w3.org/2000/svg">
<g filter="url(#filter0_d_1_467)">
<mask id="path-1-outside-1_1_467" maskUnits="userSpaceOnUse" x="-2.18201" y="0.616005" width="109" height="21" fill="black">
<rect fill="white" x="-2.18201" y="0.616005" width="109" height="21"/>
<path d="M6.99399 20.356V11.282L7.17599 12.556L-0.182007 2.156H4.86199L10.452 10.164L8.18999 10.086L13.208 2.156H18.122L11.076 12.842L11.466 11.048V20.356H6.99399Z"/>
<path d="M25.7731 20.616C24.4038 20.616 23.1384 20.382 21.9771 19.914C20.8331 19.446 19.8364 18.796 18.9871 17.964C18.1551 17.1147 17.5051 16.118 17.0371 14.974C16.5691 13.8127 16.3351 12.5473 16.3351 11.178C16.3351 9.826 16.5691 8.578 17.0371 7.434C17.5051 6.27267 18.1551 5.26734 18.9871 4.418C19.8364 3.56867 20.8331 2.91 21.9771 2.44201C23.1384 1.974 24.4038 1.74 25.7731 1.74C27.1251 1.74 28.3731 1.974 29.5171 2.44201C30.6611 2.91 31.6491 3.56867 32.4811 4.418C33.3304 5.26734 33.9891 6.27267 34.4571 7.434C34.9251 8.578 35.1591 9.83467 35.1591 11.204C35.1591 12.556 34.9251 13.804 34.4571 14.948C33.9891 16.092 33.3304 17.0887 32.4811 17.938C31.6491 18.7873 30.6611 19.446 29.5171 19.914C28.3731 20.382 27.1251 20.616 25.7731 20.616ZM25.7731 16.43C26.4838 16.43 27.1338 16.3 27.7231 16.04C28.3124 15.78 28.8238 15.416 29.2571 14.948C29.7078 14.48 30.0544 13.9253 30.2971 13.284C30.5398 12.6427 30.6611 11.9493 30.6611 11.204C30.6611 10.4413 30.5398 9.73934 30.2971 9.098C30.0544 8.45667 29.7078 7.902 29.2571 7.434C28.8238 6.94867 28.3124 6.576 27.7231 6.316C27.1338 6.05601 26.4838 5.926 25.7731 5.926C25.0624 5.926 24.4038 6.05601 23.7971 6.316C23.2078 6.576 22.6878 6.94867 22.2371 7.434C21.8038 7.902 21.4658 8.45667 21.2231 9.098C20.9804 9.73934 20.8591 10.4413 20.8591 11.204C20.8591 12.2093 21.0671 13.1107 21.4831 13.908C21.9164 14.688 22.4971 15.3033 23.2251 15.754C23.9704 16.2047 24.8198 16.43 25.7731 16.43Z"/>
<path d="M44.4039 20.512C42.8959 20.512 41.5526 20.2087 40.3739 19.602C39.2126 18.978 38.2939 18.1287 37.6179 17.054C36.9419 15.962 36.6039 14.7313 36.6039 13.362V2.13H41.0759V13.128C41.0759 13.7867 41.2233 14.376 41.5179 14.896C41.8126 15.416 42.2113 15.832 42.7139 16.144C43.2339 16.4387 43.7973 16.586 44.4039 16.586C45.0453 16.586 45.6259 16.4387 46.1459 16.144C46.6659 15.832 47.0733 15.416 47.3679 14.896C47.6799 14.376 47.8359 13.7867 47.8359 13.128V2.13H52.1519V13.362C52.1519 14.7313 51.8139 15.962 51.1379 17.054C50.4793 18.1287 49.5693 18.978 48.4079 19.602C47.2466 20.2087 45.9119 20.512 44.4039 20.512Z"/>
<path d="M60.5475 20.616C58.7448 20.616 57.2195 20.304 55.9715 19.68C54.7408 19.0387 53.6835 18.1373 52.7995 16.976L55.5035 13.934C56.3528 15.0953 57.2108 15.8753 58.0775 16.274C58.9442 16.6727 59.8368 16.872 60.7555 16.872C61.2235 16.872 61.6395 16.8113 62.0035 16.69C62.3848 16.5687 62.6795 16.3953 62.8875 16.17C63.1128 15.9273 63.2255 15.6413 63.2255 15.312C63.2255 15.052 63.1562 14.818 63.0175 14.61C62.8962 14.402 62.7228 14.22 62.4975 14.064C62.2722 13.908 62.0122 13.7693 61.7175 13.648C61.4228 13.5093 61.0935 13.3967 60.7295 13.31C60.3828 13.2233 60.0275 13.1453 59.6635 13.076C58.6582 12.868 57.7828 12.5993 57.0375 12.27C56.3095 11.9233 55.6942 11.516 55.1915 11.048C54.7062 10.5627 54.3422 10.0167 54.0995 9.41C53.8568 8.786 53.7355 8.084 53.7355 7.304C53.7355 6.19467 54.0475 5.224 54.6715 4.392C55.3128 3.56 56.1535 2.91 57.1935 2.44201C58.2335 1.974 59.3602 1.74 60.5735 1.74C62.3415 1.74 63.7628 2.026 64.8375 2.598C65.9295 3.15267 66.7962 3.924 67.4375 4.912L64.6815 7.59C64.1442 6.89667 63.5288 6.37667 62.8355 6.03C62.1595 5.68334 61.4488 5.51 60.7035 5.51C60.2008 5.51 59.7588 5.57067 59.3775 5.692C58.9962 5.81334 58.7015 5.99534 58.4935 6.238C58.3028 6.46334 58.2075 6.74067 58.2075 7.07C58.2075 7.34734 58.2855 7.59867 58.4415 7.824C58.6148 8.032 58.8488 8.214 59.1435 8.37C59.4382 8.526 59.7762 8.66467 60.1575 8.786C60.5388 8.89 60.9375 8.97667 61.3535 9.046C62.3068 9.23667 63.1648 9.488 63.9275 9.8C64.7075 10.112 65.3748 10.502 65.9295 10.97C66.4842 11.4207 66.9088 11.958 67.2035 12.582C67.5155 13.1887 67.6715 13.8907 67.6715 14.688C67.6715 15.936 67.3682 17.002 66.7615 17.886C66.1548 18.77 65.3142 19.446 64.2395 19.914C63.1648 20.382 61.9342 20.616 60.5475 20.616Z"/>
<path d="M80.4834 20.356V2.156H84.9294V20.356H80.4834ZM69.1734 20.356V2.156H73.6194V20.356H69.1734ZM70.9414 13.284V9.28H82.8234V13.284H70.9414Z"/>
<path d="M85.3785 20.356L92.5805 2.156H96.3505C96.3505 2.156 110.939 18.6282 103.501 20.356C101.799 20.7512 99.0285 20.356 99.0285 20.356L95.5705 11.126C95.4492 10.762 95.3105 10.372 95.1545 9.95601C95.0158 9.54 94.8772 9.10667 94.7385 8.656C94.5998 8.20534 94.4698 7.772 94.3485 7.356C94.2272 6.94 94.1232 6.55 94.0365 6.186L94.7905 6.16C94.6865 6.59334 94.5738 7.018 94.4525 7.434C94.3312 7.85 94.2012 8.266 94.0625 8.682C93.9238 9.098 93.7765 9.514 93.6205 9.93C93.4818 10.3287 93.3345 10.7447 93.1785 11.178L89.7465 20.356H85.3785ZM88.8105 16.872L90.2145 13.492H98.5345L99.9385 16.872H88.8105Z"/>
</mask>
<path d="M6.99399 20.356V11.282L7.17599 12.556L-0.182007 2.156H4.86199L10.452 10.164L8.18999 10.086L13.208 2.156H18.122L11.076 12.842L11.466 11.048V20.356H6.99399Z" fill="white"/>
<path d="M25.7731 20.616C24.4038 20.616 23.1384 20.382 21.9771 19.914C20.8331 19.446 19.8364 18.796 18.9871 17.964C18.1551 17.1147 17.5051 16.118 17.0371 14.974C16.5691 13.8127 16.3351 12.5473 16.3351 11.178C16.3351 9.826 16.5691 8.578 17.0371 7.434C17.5051 6.27267 18.1551 5.26734 18.9871 4.418C19.8364 3.56867 20.8331 2.91 21.9771 2.44201C23.1384 1.974 24.4038 1.74 25.7731 1.74C27.1251 1.74 28.3731 1.974 29.5171 2.44201C30.6611 2.91 31.6491 3.56867 32.4811 4.418C33.3304 5.26734 33.9891 6.27267 34.4571 7.434C34.9251 8.578 35.1591 9.83467 35.1591 11.204C35.1591 12.556 34.9251 13.804 34.4571 14.948C33.9891 16.092 33.3304 17.0887 32.4811 17.938C31.6491 18.7873 30.6611 19.446 29.5171 19.914C28.3731 20.382 27.1251 20.616 25.7731 20.616ZM25.7731 16.43C26.4838 16.43 27.1338 16.3 27.7231 16.04C28.3124 15.78 28.8238 15.416 29.2571 14.948C29.7078 14.48 30.0544 13.9253 30.2971 13.284C30.5398 12.6427 30.6611 11.9493 30.6611 11.204C30.6611 10.4413 30.5398 9.73934 30.2971 9.098C30.0544 8.45667 29.7078 7.902 29.2571 7.434C28.8238 6.94867 28.3124 6.576 27.7231 6.316C27.1338 6.05601 26.4838 5.926 25.7731 5.926C25.0624 5.926 24.4038 6.05601 23.7971 6.316C23.2078 6.576 22.6878 6.94867 22.2371 7.434C21.8038 7.902 21.4658 8.45667 21.2231 9.098C20.9804 9.73934 20.8591 10.4413 20.8591 11.204C20.8591 12.2093 21.0671 13.1107 21.4831 13.908C21.9164 14.688 22.4971 15.3033 23.2251 15.754C23.9704 16.2047 24.8198 16.43 25.7731 16.43Z" fill="white"/>
<path d="M44.4039 20.512C42.8959 20.512 41.5526 20.2087 40.3739 19.602C39.2126 18.978 38.2939 18.1287 37.6179 17.054C36.9419 15.962 36.6039 14.7313 36.6039 13.362V2.13H41.0759V13.128C41.0759 13.7867 41.2233 14.376 41.5179 14.896C41.8126 15.416 42.2113 15.832 42.7139 16.144C43.2339 16.4387 43.7973 16.586 44.4039 16.586C45.0453 16.586 45.6259 16.4387 46.1459 16.144C46.6659 15.832 47.0733 15.416 47.3679 14.896C47.6799 14.376 47.8359 13.7867 47.8359 13.128V2.13H52.1519V13.362C52.1519 14.7313 51.8139 15.962 51.1379 17.054C50.4793 18.1287 49.5693 18.978 48.4079 19.602C47.2466 20.2087 45.9119 20.512 44.4039 20.512Z" fill="white"/>
<path d="M60.5475 20.616C58.7448 20.616 57.2195 20.304 55.9715 19.68C54.7408 19.0387 53.6835 18.1373 52.7995 16.976L55.5035 13.934C56.3528 15.0953 57.2108 15.8753 58.0775 16.274C58.9442 16.6727 59.8368 16.872 60.7555 16.872C61.2235 16.872 61.6395 16.8113 62.0035 16.69C62.3848 16.5687 62.6795 16.3953 62.8875 16.17C63.1128 15.9273 63.2255 15.6413 63.2255 15.312C63.2255 15.052 63.1562 14.818 63.0175 14.61C62.8962 14.402 62.7228 14.22 62.4975 14.064C62.2722 13.908 62.0122 13.7693 61.7175 13.648C61.4228 13.5093 61.0935 13.3967 60.7295 13.31C60.3828 13.2233 60.0275 13.1453 59.6635 13.076C58.6582 12.868 57.7828 12.5993 57.0375 12.27C56.3095 11.9233 55.6942 11.516 55.1915 11.048C54.7062 10.5627 54.3422 10.0167 54.0995 9.41C53.8568 8.786 53.7355 8.084 53.7355 7.304C53.7355 6.19467 54.0475 5.224 54.6715 4.392C55.3128 3.56 56.1535 2.91 57.1935 2.44201C58.2335 1.974 59.3602 1.74 60.5735 1.74C62.3415 1.74 63.7628 2.026 64.8375 2.598C65.9295 3.15267 66.7962 3.924 67.4375 4.912L64.6815 7.59C64.1442 6.89667 63.5288 6.37667 62.8355 6.03C62.1595 5.68334 61.4488 5.51 60.7035 5.51C60.2008 5.51 59.7588 5.57067 59.3775 5.692C58.9962 5.81334 58.7015 5.99534 58.4935 6.238C58.3028 6.46334 58.2075 6.74067 58.2075 7.07C58.2075 7.34734 58.2855 7.59867 58.4415 7.824C58.6148 8.032 58.8488 8.214 59.1435 8.37C59.4382 8.526 59.7762 8.66467 60.1575 8.786C60.5388 8.89 60.9375 8.97667 61.3535 9.046C62.3068 9.23667 63.1648 9.488 63.9275 9.8C64.7075 10.112 65.3748 10.502 65.9295 10.97C66.4842 11.4207 66.9088 11.958 67.2035 12.582C67.5155 13.1887 67.6715 13.8907 67.6715 14.688C67.6715 15.936 67.3682 17.002 66.7615 17.886C66.1548 18.77 65.3142 19.446 64.2395 19.914C63.1648 20.382 61.9342 20.616 60.5475 20.616Z" fill="white"/>
<path d="M80.4834 20.356V2.156H84.9294V20.356H80.4834ZM69.1734 20.356V2.156H73.6194V20.356H69.1734ZM70.9414 13.284V9.28H82.8234V13.284H70.9414Z" fill="white"/>
<path d="M85.3785 20.356L92.5805 2.156H96.3505C96.3505 2.156 110.939 18.6282 103.501 20.356C101.799 20.7512 99.0285 20.356 99.0285 20.356L95.5705 11.126C95.4492 10.762 95.3105 10.372 95.1545 9.95601C95.0158 9.54 94.8772 9.10667 94.7385 8.656C94.5998 8.20534 94.4698 7.772 94.3485 7.356C94.2272 6.94 94.1232 6.55 94.0365 6.186L94.7905 6.16C94.6865 6.59334 94.5738 7.018 94.4525 7.434C94.3312 7.85 94.2012 8.266 94.0625 8.682C93.9238 9.098 93.7765 9.514 93.6205 9.93C93.4818 10.3287 93.3345 10.7447 93.1785 11.178L89.7465 20.356H85.3785ZM88.8105 16.872L90.2145 13.492H98.5345L99.9385 16.872H88.8105Z" fill="white"/>
<path d="M6.99399 20.356V11.282L7.17599 12.556L-0.182007 2.156H4.86199L10.452 10.164L8.18999 10.086L13.208 2.156H18.122L11.076 12.842L11.466 11.048V20.356H6.99399Z" stroke="black" stroke-width="2" mask="url(#path-1-outside-1_1_467)"/>
<path d="M25.7731 20.616C24.4038 20.616 23.1384 20.382 21.9771 19.914C20.8331 19.446 19.8364 18.796 18.9871 17.964C18.1551 17.1147 17.5051 16.118 17.0371 14.974C16.5691 13.8127 16.3351 12.5473 16.3351 11.178C16.3351 9.826 16.5691 8.578 17.0371 7.434C17.5051 6.27267 18.1551 5.26734 18.9871 4.418C19.8364 3.56867 20.8331 2.91 21.9771 2.44201C23.1384 1.974 24.4038 1.74 25.7731 1.74C27.1251 1.74 28.3731 1.974 29.5171 2.44201C30.6611 2.91 31.6491 3.56867 32.4811 4.418C33.3304 5.26734 33.9891 6.27267 34.4571 7.434C34.9251 8.578 35.1591 9.83467 35.1591 11.204C35.1591 12.556 34.9251 13.804 34.4571 14.948C33.9891 16.092 33.3304 17.0887 32.4811 17.938C31.6491 18.7873 30.6611 19.446 29.5171 19.914C28.3731 20.382 27.1251 20.616 25.7731 20.616ZM25.7731 16.43C26.4838 16.43 27.1338 16.3 27.7231 16.04C28.3124 15.78 28.8238 15.416 29.2571 14.948C29.7078 14.48 30.0544 13.9253 30.2971 13.284C30.5398 12.6427 30.6611 11.9493 30.6611 11.204C30.6611 10.4413 30.5398 9.73934 30.2971 9.098C30.0544 8.45667 29.7078 7.902 29.2571 7.434C28.8238 6.94867 28.3124 6.576 27.7231 6.316C27.1338 6.05601 26.4838 5.926 25.7731 5.926C25.0624 5.926 24.4038 6.05601 23.7971 6.316C23.2078 6.576 22.6878 6.94867 22.2371 7.434C21.8038 7.902 21.4658 8.45667 21.2231 9.098C20.9804 9.73934 20.8591 10.4413 20.8591 11.204C20.8591 12.2093 21.0671 13.1107 21.4831 13.908C21.9164 14.688 22.4971 15.3033 23.2251 15.754C23.9704 16.2047 24.8198 16.43 25.7731 16.43Z" stroke="black" stroke-width="2" mask="url(#path-1-outside-1_1_467)"/>
<path d="M44.4039 20.512C42.8959 20.512 41.5526 20.2087 40.3739 19.602C39.2126 18.978 38.2939 18.1287 37.6179 17.054C36.9419 15.962 36.6039 14.7313 36.6039 13.362V2.13H41.0759V13.128C41.0759 13.7867 41.2233 14.376 41.5179 14.896C41.8126 15.416 42.2113 15.832 42.7139 16.144C43.2339 16.4387 43.7973 16.586 44.4039 16.586C45.0453 16.586 45.6259 16.4387 46.1459 16.144C46.6659 15.832 47.0733 15.416 47.3679 14.896C47.6799 14.376 47.8359 13.7867 47.8359 13.128V2.13H52.1519V13.362C52.1519 14.7313 51.8139 15.962 51.1379 17.054C50.4793 18.1287 49.5693 18.978 48.4079 19.602C47.2466 20.2087 45.9119 20.512 44.4039 20.512Z" stroke="black" stroke-width="2" mask="url(#path-1-outside-1_1_467)"/>
<path d="M60.5475 20.616C58.7448 20.616 57.2195 20.304 55.9715 19.68C54.7408 19.0387 53.6835 18.1373 52.7995 16.976L55.5035 13.934C56.3528 15.0953 57.2108 15.8753 58.0775 16.274C58.9442 16.6727 59.8368 16.872 60.7555 16.872C61.2235 16.872 61.6395 16.8113 62.0035 16.69C62.3848 16.5687 62.6795 16.3953 62.8875 16.17C63.1128 15.9273 63.2255 15.6413 63.2255 15.312C63.2255 15.052 63.1562 14.818 63.0175 14.61C62.8962 14.402 62.7228 14.22 62.4975 14.064C62.2722 13.908 62.0122 13.7693 61.7175 13.648C61.4228 13.5093 61.0935 13.3967 60.7295 13.31C60.3828 13.2233 60.0275 13.1453 59.6635 13.076C58.6582 12.868 57.7828 12.5993 57.0375 12.27C56.3095 11.9233 55.6942 11.516 55.1915 11.048C54.7062 10.5627 54.3422 10.0167 54.0995 9.41C53.8568 8.786 53.7355 8.084 53.7355 7.304C53.7355 6.19467 54.0475 5.224 54.6715 4.392C55.3128 3.56 56.1535 2.91 57.1935 2.44201C58.2335 1.974 59.3602 1.74 60.5735 1.74C62.3415 1.74 63.7628 2.026 64.8375 2.598C65.9295 3.15267 66.7962 3.924 67.4375 4.912L64.6815 7.59C64.1442 6.89667 63.5288 6.37667 62.8355 6.03C62.1595 5.68334 61.4488 5.51 60.7035 5.51C60.2008 5.51 59.7588 5.57067 59.3775 5.692C58.9962 5.81334 58.7015 5.99534 58.4935 6.238C58.3028 6.46334 58.2075 6.74067 58.2075 7.07C58.2075 7.34734 58.2855 7.59867 58.4415 7.824C58.6148 8.032 58.8488 8.214 59.1435 8.37C59.4382 8.526 59.7762 8.66467 60.1575 8.786C60.5388 8.89 60.9375 8.97667 61.3535 9.046C62.3068 9.23667 63.1648 9.488 63.9275 9.8C64.7075 10.112 65.3748 10.502 65.9295 10.97C66.4842 11.4207 66.9088 11.958 67.2035 12.582C67.5155 13.1887 67.6715 13.8907 67.6715 14.688C67.6715 15.936 67.3682 17.002 66.7615 17.886C66.1548 18.77 65.3142 19.446 64.2395 19.914C63.1648 20.382 61.9342 20.616 60.5475 20.616Z" stroke="black" stroke-width="2" mask="url(#path-1-outside-1_1_467)"/>
<path d="M80.4834 20.356V2.156H84.9294V20.356H80.4834ZM69.1734 20.356V2.156H73.6194V20.356H69.1734ZM70.9414 13.284V9.28H82.8234V13.284H70.9414Z" stroke="black" stroke-width="2" mask="url(#path-1-outside-1_1_467)"/>
<path d="M85.3785 20.356L92.5805 2.156H96.3505C96.3505 2.156 110.939 18.6282 103.501 20.356C101.799 20.7512 99.0285 20.356 99.0285 20.356L95.5705 11.126C95.4492 10.762 95.3105 10.372 95.1545 9.95601C95.0158 9.54 94.8772 9.10667 94.7385 8.656C94.5998 8.20534 94.4698 7.772 94.3485 7.356C94.2272 6.94 94.1232 6.55 94.0365 6.186L94.7905 6.16C94.6865 6.59334 94.5738 7.018 94.4525 7.434C94.3312 7.85 94.2012 8.266 94.0625 8.682C93.9238 9.098 93.7765 9.514 93.6205 9.93C93.4818 10.3287 93.3345 10.7447 93.1785 11.178L89.7465 20.356H85.3785ZM88.8105 16.872L90.2145 13.492H98.5345L99.9385 16.872H88.8105Z" stroke="black" stroke-width="2" mask="url(#path-1-outside-1_1_467)"/>
</g>
<defs>
<filter id="filter0_d_1_467" x="-6.11447" y="0.740005" width="116.728" height="28.876" filterUnits="userSpaceOnUse" color-interpolation-filters="sRGB">
<feFlood flood-opacity="0" result="BackgroundImageFix"/>
<feColorMatrix in="SourceAlpha" type="matrix" values="0 0 0 0 0 0 0 0 0 0 0 0 0 0 0 0 0 0 127 0" result="hardAlpha"/>
<feOffset dy="4"/>
<feGaussianBlur stdDeviation="2"/>
<feComposite in2="hardAlpha" operator="out"/>
<feColorMatrix type="matrix" values="0 0 0 0 0 0 0 0 0 0 0 0 0 0 0 0 0 0 0.25 0"/>
<feBlend mode="normal" in2="BackgroundImageFix" result="effect1_dropShadow_1_467"/>
<feBlend mode="normal" in="SourceGraphic" in2="effect1_dropShadow_1_467" result="shape"/>
</filter>
</defs>
</svg>
